FILE "GAME.GOG" BINARY
REM SESSION 01
   TRACK 01 MODE1/2352
      INDEX 01 00:00:00
   TRACK 02 AUDIO
      INDEX 01 05:31:19
   TRACK 03 AUDIO
      INDEX 01 06:51:08
   TRACK 04 AUDIO
      INDEX 01 08:07:61
   TRACK 05 AUDIO
      INDEX 01 10:15:34
   TRACK 06 AUDIO
      INDEX 01 11:59:40
   TRACK 07 AUDIO
      INDEX 01 15:51:16
   TRACK 08 AUDIO
      INDEX 01 17:53:51
   TRACK 09 AUDIO
      INDEX 01 18:27:19
   TRACK 10 AUDIO
      INDEX 01 19:56:45
   TRACK 11 AUDIO
      INDEX 01 21:19:36
   TRACK 12 AUDIO
      INDEX 01 24:39:28
   TRACK 13 AUDIO
      INDEX 01 25:03:70
   TRACK 14 AUDIO
      INDEX 01 25:14:42
   TRACK 15 AUDIO
      INDEX 01 25:23:05
   TRACK 16 AUDIO
      INDEX 01 28:14:38
   TRACK 17 AUDIO
      INDEX 01 29:53:17
